<svg id="Layer_5" enable-background="new 0 0 64 64" height="512" viewBox="0 0 64 64" width="512" xmlns="http://www.w3.org/2000/svg"><g><path d="m62.477 43-4.8-12h-3.677v-14h4v-2.596l-23.645-12.806c-1.443-.783-3.268-.783-4.711 0l-23.644 12.806v2.596h4v14h-3.677l-4.8 12h2.477v20h56v-1-11-8zm-10.477-12h-12v-14h12zm-14-14v14h-12v-14zm-7.402-13.645c.859-.465 1.945-.465 2.805 0l21.497 11.645h-45.8zm-18.598 13.645h12v14h-12zm-4.323 16h48.646l3.2 8h-55.046zm2.323 20v-6h8v4h-2v10h-4v-8zm8 0h4v8h-4zm6 2h6v-4h5v-4h5v6h-6v8h-10zm12 0h4v6h-4zm4-10h-7v4h-5v4h-4v-10h16zm-18-2v8h-2v-6h-12v8h-2v-10zm-16 12h4v6h-4zm46 6h-6v-14h8v4h-2zm2-8h4v8h-4zm4-2h-2v-6h-12v16h-2v-18h16z"/><path d="m50 25v-6h-8v6zm-6-4h4v2h-4z"/><path d="m36 29v-10h-8v10zm-6-8h4v6h-4z"/><path d="m14 23v6h8v-6zm6 4h-4v-2h4z"/></g></svg>