<svg id="Layer_5" enable-background="new 0 0 64 64" height="512" viewBox="0 0 64 64" width="512" xmlns="http://www.w3.org/2000/svg"><g><path d="m40 1v4h-16v-4h-23v62h62v-62zm-18 2v4h20v-4h19v10h-2v-1c0-1.654-1.346-3-3-3s-3 1.346-3 3v1h-6v-1c0-1.654-1.346-3-3-3s-3 1.346-3 3v1h-6v-1c0-1.654-1.346-3-3-3s-3 1.346-3 3v1h-6v-1c0-1.654-1.346-3-3-3s-3 1.346-3 3v1h-6v-1c0-1.654-1.346-3-3-3s-3 1.346-3 3v1h-2v-10zm-19 38v-6h4v6zm6-6h4v6h-4zm6 0h4v6h-4zm6 0h4v6h-4zm6 0h4v6h-4zm6 0h4v6h-4zm6 0h4v6h-4zm6 0h4v6h-4zm6 0h4v6h-4zm6 0h4v6h-4zm-54-2v-2h58v2zm10-18v14h-10v-14h4v-3c0-.551.449-1 1-1s1 .449 1 1v3zm12 0v14h-10v-14h4v-3c0-.551.449-1 1-1s1 .449 1 1v3zm12 0v14h-10v-14h4v-3c0-.551.449-1 1-1s1 .449 1 1v3zm12 0v14h-10v-14h4v-3c0-.551.449-1 1-1s1 .449 1 1v3zm2 14v-14h4v-3c0-.551.449-1 1-1s1 .449 1 1v3h4v14zm-32 32h-10v-7c0-2.757 2.243-5 5-5s5 2.243 5 5zm18 0h-10v-7c0-2.757 2.243-5 5-5s5 2.243 5 5zm18 0h-10v-7c0-2.757 2.243-5 5-5s5 2.243 5 5zm2 0v-7c0-3.86-3.14-7-7-7s-7 3.14-7 7v7h-4v-7c0-3.86-3.14-7-7-7s-7 3.14-7 7v7h-4v-7c0-3.86-3.14-7-7-7s-7 3.14-7 7v7h-4v-18h58v18z"/><path d="m5 27h6v-10h-6zm2-8h2v6h-2z"/><path d="m17 27h6v-10h-6zm2-8h2v6h-2z"/><path d="m41 27h6v-10h-6zm2-8h2v6h-2z"/><path d="m29 27h6v-10h-6zm2-8h2v6h-2z"/><path d="m53 17v10h6v-10zm4 8h-2v-6h2z"/></g></svg>